<svg xmlns="http://www.w3.org/2000/svg" viewBox="0 0 64 64" width="64" height="64">
  <defs>
    <radialGradient id="glow" cx="0.6" cy="0.42" r="0.72">
      <stop offset="0" stop-color="#e8b04a" stop-opacity="0.30"/>
      <stop offset="1" stop-color="#e8b04a" stop-opacity="0"/>
    </radialGradient>
  </defs>
  <rect width="64" height="64" rx="14" fill="#0c1422"/>
  <rect width="64" height="64" rx="14" fill="url(#glow)"/>
  <g transform="translate(6.1,4.7) scale(0.144)">
    <polygon points="180,250 320,310 180,370 40,310" fill="#3f8f55"/>
    <polygon points="180,310 320,310 180,370 40,310" fill="#000000" fill-opacity="0.22"/>
    <polygon points="180,330 270,290 270,150 180,190" fill="#43568f"/>
    <polygon points="180,330 90,290 90,150 180,190" fill="#5a6fae"/>
    <polygon points="180,190 270,150 180,110 90,150" fill="#8b9fd6"/>
    <polygon points="180,210 240,182 240,90 180,118" fill="#4a5f9d"/>
    <polygon points="180,210 120,182 120,90 180,118" fill="#6278ba"/>
    <polygon points="180,118 240,90 180,62 120,90" fill="#8b9fd6"/>
    <rect x="120" y="56" width="120" height="13" fill="#e8b04a"/>
    <line x1="180" y1="62" x2="180" y2="16" stroke="#e8b04a" stroke-width="6" stroke-linecap="round"/>
    <circle cx="180" cy="16" r="9" fill="#ffd23f"/>
    <g fill="#ffe096" fill-opacity="0.9">
      <rect x="150" y="160" width="11" height="14"/><rect x="200" y="160" width="11" height="14"/>
      <rect x="108" y="210" width="13" height="16"/><rect x="210" y="210" width="13" height="16"/>
    </g>
  </g>
</svg>
